<svg width="75" height="97" viewBox="0 0 75 97" fill="none" xmlns="http://www.w3.org/2000/svg">
<g filter="url(#filter0_b_34717_11296)">
<path d="M74.5918 44.0443C74.5918 68.0943 58.7518 90.5843 37.4668 96.0443C16.1818 90.5843 0.341797 68.0943 0.341797 44.0443V18.0443L37.4668 0.710938L74.5918 18.0443V44.0443Z" fill="#0389FF" fill-opacity="0.1"/>
</g>
<path d="M74.5918 44.0443C74.5918 68.0943 58.7518 90.5843 37.4668 96.0443C16.1818 90.5843 0.341797 68.0943 0.341797 44.0443V18.0443L37.4668 0.710938L74.5918 18.0443V44.0443ZM37.4668 87.3776C52.9355 83.0443 66.3418 63.7176 66.3418 44.9976V23.6776L37.4668 10.1576L8.5918 23.6776V44.9976C8.5918 63.7176 21.998 83.0443 37.4668 87.3776Z" fill="#0389FF"/>
<path d="M31.0053 23.0407C29.5355 23.0718 29.4517 23.0925 29.2741 23.4552C29.1015 23.8075 25.1507 43.0046 23.7993 50.0513C23.5083 51.5746 23.5083 51.6057 23.8584 52.0254L24.0607 52.2637L28.2087 52.2689C32.5985 52.2741 36.1102 52.3207 36.1645 52.3829C36.204 52.4244 36.1546 52.6316 34.231 60.0617C32.4505 66.9323 31.7057 69.839 31.2766 71.5955C30.9313 73.0308 30.9264 73.0929 31.2076 73.4297C31.4838 73.7561 32.046 73.865 32.2877 73.637C32.6281 73.3105 40.1843 61.5695 46.7788 51.1135C50.9663 44.4709 51.1833 44.1082 51.3263 43.5642C51.4003 43.274 51.3707 43.16 51.134 42.8492L50.9416 42.5901L43.775 42.5538C39.8292 42.5383 36.3223 42.5072 35.9721 42.4865C35.3655 42.4554 35.3457 42.4502 35.3753 42.3466C35.3901 42.2844 36.781 39.3206 38.4629 35.761C41.5802 29.1651 43.1535 25.7972 43.6517 24.6573C43.9624 23.9371 43.992 23.7246 43.8145 23.4552C43.6172 23.1391 43.4692 23.0873 42.6357 23.0407C41.812 22.9889 33.1016 22.9889 31.0053 23.0407Z" fill="white"/>
<defs>
<filter id="filter0_b_34717_11296" x="-8.6582" y="-8.28906" width="92.25" height="113.332" filterUnits="userSpaceOnUse" color-interpolation-filters="sRGB">
<feFlood flood-opacity="0" result="BackgroundImageFix"/>
<feGaussianBlur in="BackgroundImageFix" stdDeviation="4.5"/>
<feComposite in2="SourceAlpha" operator="in" result="effect1_backgroundBlur_34717_11296"/>
<feBlend mode="normal" in="SourceGraphic" in2="effect1_backgroundBlur_34717_11296" result="shape"/>
</filter>
</defs>
</svg>
