<svg width="52" height="54" viewBox="0 0 52 54" fill="none" xmlns="http://www.w3.org/2000/svg">
<rect x="0.5" y="0.871094" width="51.0161" height="52.2604" rx="25.5081" fill="#0389FF" fill-opacity="0.12"/>
<path d="M26.8794 29.5524L33.9097 22.5221L32.1677 20.7179L26.8794 26.0061L24.2042 23.3931L22.4621 25.1351L26.8794 29.5524ZM21.0312 34.4673C20.3468 34.4673 19.7608 34.2234 19.273 33.7357C18.7853 33.2479 18.5418 32.6623 18.5426 31.9787V17.0472C18.5426 16.3628 18.7865 15.7768 19.2743 15.289C19.762 14.8012 20.3477 14.5578 21.0312 14.5586H35.9628C36.6471 14.5586 37.2332 14.8025 37.7209 15.2902C38.2087 15.778 38.4522 16.3637 38.4513 17.0472V31.9787C38.4513 32.6631 38.2075 33.2492 37.7197 33.7369C37.2319 34.2247 36.6463 34.4682 35.9628 34.4673H21.0312ZM16.054 39.4445C15.3697 39.4445 14.7836 39.2006 14.2958 38.7129C13.8081 38.2251 13.5646 37.6394 13.5654 36.9559V19.5358H16.054V36.9559H33.4742V39.4445H16.054Z" fill="#0389FF"/>
</svg>
