<svg width="62" height="41" viewBox="0 0 62 41" fill="none" xmlns="http://www.w3.org/2000/svg">
<path d="M28.0474 4.61182C26.4479 4.83251 23.8452 5.8532 22.2999 6.87389C19.5074 8.69458 16.9048 12.4187 16.3897 15.2325C16.1999 16.1704 16.1185 16.2808 15.3594 16.2808C12.4314 16.2808 9.28654 18.2118 7.98521 20.8325C7.28032 22.2394 7.17188 22.736 7.17188 24.667C7.17188 26.3498 7.33454 27.2049 7.76832 28.1704C8.55454 29.9084 10.127 31.6187 11.7537 32.5015C13.1363 33.2463 13.1905 33.2463 19.5888 33.3291C25.1465 33.4118 26.0141 33.3567 26.0141 32.998C26.0141 32.667 25.0923 32.5842 19.7243 32.5015C13.787 32.4187 13.3261 32.3911 12.2688 31.8118C10.7777 30.9842 9.39499 29.4946 8.66299 27.9498C6.35854 22.9291 9.77454 17.3566 15.2239 17.2739L16.7692 17.2463L17.0945 15.867C17.8265 12.6946 20.4834 8.94286 23.1945 7.2601C24.523 6.4601 27.0985 5.63251 28.915 5.41182C33.0088 4.91527 38.0243 7.09458 40.5457 10.4601L41.5217 11.7291L43.9888 11.7566C47.5132 11.8118 49.167 12.5015 51.5257 14.8739C53.8301 17.2187 54.5621 19.0118 54.5621 22.2118C54.5621 25.2739 53.803 27.2325 51.7968 29.2463C49.1128 31.9498 47.2421 32.5291 41.2777 32.5567C37.6719 32.5567 37.1297 32.6118 37.1297 32.998C37.1297 33.3842 37.6719 33.4118 42.091 33.3291C46.3474 33.2187 47.215 33.136 48.5163 32.6118C56.4328 29.4118 57.951 18.6808 51.2274 13.2739C49.2212 11.6739 47.215 10.9566 44.4497 10.9015L42.1452 10.8463L40.4101 9.02561C37.1568 5.57734 32.6834 3.97734 28.0474 4.61182Z" fill="#0389FF"/>
<path d="M28.2375 21.7717C25.2824 25.0269 24.4419 26.2131 25.1739 26.2131C25.2824 26.2131 26.665 24.8338 28.2104 23.1235L31.0299 20.0614L31.1655 28.5028C31.2468 33.7993 31.4095 36.9993 31.5721 37.0545C31.7348 37.0821 31.8704 34.1028 31.9246 28.6131C31.9517 23.951 32.033 20.1442 32.1144 20.1442C32.1686 20.1442 32.8193 20.8062 33.5241 21.5786C36.8859 25.3304 37.889 26.2959 38.1873 26.1028C38.5126 25.8821 37.5366 24.6407 33.6868 20.4476L31.545 18.1304L28.2375 21.7717Z" fill="#0389FF"/>
</svg>
